<svg width="120" height="120" viewBox="0 0 120 120" fill="none" xmlns="http://www.w3.org/2000/svg">
<path d="M116.25 91.5751H3.75C1.6875 91.5751 0 89.8876 0 87.8251V11.55C0 9.48755 1.6875 7.80005 3.75 7.80005H116.25C118.312 7.80005 120 9.48755 120 11.55V87.8251C120 89.9063 118.312 91.5751 116.25 91.5751Z" fill="#EC4F78"/>
<path d="M109.538 29.175V70.2188C103.519 70.2188 98.6254 75.0937 98.6254 81.1125H21.3754C21.3754 75.0937 16.5004 70.2188 10.4629 70.2188V29.175C16.4816 29.175 21.3754 24.3 21.3754 18.2812H98.6254C98.6254 24.3 103.5 29.175 109.538 29.175Z" fill="white"/>
<path d="M76.875 30H43.125V35.625H76.875V30Z" fill="#EC4F78"/>
<path d="M93.6562 45H26.25V50.8688H93.6562V45Z" fill="#EC4F78"/>
<path d="M93.6562 54.375H26.25V60.2438H93.6562V54.375Z" fill="#EC4F78"/>
<path d="M99.4873 92.0437L108.094 106.931L104.231 106.237L103.125 106.031L101.325 105.694L100.706 107.419L100.312 108.506L98.9998 112.2L90.3936 97.2937L99.4873 92.0437Z" fill="#FF7058"/>
<path d="M96.9002 93.5437L104.231 106.237L101.325 105.694L100.313 108.506L92.9814 95.7937L96.9002 93.5437Z" fill="#E8533F"/>
<path d="M80.8504 92.0437L72.2441 106.931L76.1066 106.237L77.2129 106.031L79.0129 105.694L79.6316 107.419L80.0254 108.506L81.3379 112.2L89.9441 97.2937L80.8504 92.0437Z" fill="#FF7058"/>
<path d="M83.4377 93.5437L76.1064 106.237L79.0127 105.694L80.0252 108.506L87.3564 95.7937L83.4377 93.5437Z" fill="#E8533F"/>
<path d="M108.956 82.2C108.956 84.5438 105.619 86.2125 104.775 88.2563C103.894 90.375 105.037 93.9 103.444 95.4938C101.85 97.0875 98.325 95.9438 96.2063 96.825C94.1625 97.6688 92.4938 101.006 90.15 101.006C87.8063 101.006 86.1375 97.6688 84.0937 96.825C81.975 95.9438 78.45 97.0875 76.8563 95.4938C75.2625 93.9 76.4062 90.375 75.525 88.2563C74.6812 86.2125 71.3438 84.5438 71.3438 82.2C71.3438 79.8563 74.6812 78.1875 75.525 76.1438C76.4062 74.025 75.2625 70.5 76.8563 68.9063C78.45 67.3125 81.975 68.4563 84.0937 67.575C86.1375 66.7313 87.8063 63.3938 90.15 63.3938C92.4938 63.3938 94.1625 66.7313 96.2063 67.575C98.325 68.4563 101.85 67.3125 103.444 68.9063C105.037 70.5 103.894 74.025 104.775 76.1438C105.619 78.1875 108.956 79.8563 108.956 82.2Z" fill="#F4C95A"/>
<path d="M104.587 82.2C104.587 84 102.037 85.275 101.381 86.85C100.706 88.4812 101.587 91.1812 100.369 92.4C99.15 93.6187 96.45 92.7375 94.8187 93.4125C93.2625 94.0687 91.9687 96.6187 90.1687 96.6187C88.3687 96.6187 87.0937 94.0687 85.5187 93.4125C83.8875 92.7375 81.1875 93.6187 79.9687 92.4C78.75 91.1812 79.6312 88.4812 78.9562 86.85C78.3 85.2937 75.75 84 75.75 82.2C75.75 80.4 78.3 79.125 78.9562 77.55C79.6312 75.9375 78.75 73.2187 79.9687 72C81.1875 70.7812 83.8875 71.6625 85.5187 70.9875C87.075 70.3312 88.3687 67.7812 90.1687 67.7812C91.9687 67.7812 93.2437 70.3312 94.8187 70.9875C96.4312 71.6625 99.15 70.7812 100.369 72C101.587 73.2187 100.706 75.9187 101.381 77.55C102.019 79.1062 104.587 80.4 104.587 82.2Z" fill="#E2A144"/>
<path d="M103.444 82.2001C103.444 83.8501 101.081 85.0313 100.5 86.475C99.8811 87.975 100.687 90.4688 99.5623 91.5938C98.4373 92.7188 95.9436 91.9125 94.4436 92.5313C92.9998 93.1313 91.8186 95.475 90.1686 95.475C88.5186 95.475 87.3373 93.1125 85.8936 92.5313C84.3936 91.9125 81.8998 92.7188 80.7748 91.5938C79.6498 90.4688 80.4561 87.975 79.8373 86.475C79.2373 85.0313 76.8936 83.8501 76.8936 82.2001C76.8936 80.5501 79.2561 79.3688 79.8373 77.9251C80.4561 76.4251 79.6498 73.9313 80.7748 72.8063C81.8998 71.6813 84.3936 72.4876 85.8936 71.8688C87.3373 71.2688 88.5186 68.925 90.1686 68.925C91.8186 68.925 92.9998 71.2876 94.4436 71.8688C95.9436 72.4876 98.4373 71.6813 99.5623 72.8063C100.687 73.9313 99.8811 76.4251 100.5 77.9251C101.1 79.3501 103.444 80.5313 103.444 82.2001Z" fill="#EDAF4B"/>
<path d="M87.1311 88.2939L82.5186 83.7001L84.0748 82.1439L87.1311 85.2189L96.2623 76.0876L97.8186 77.6251L87.1311 88.2939Z" fill="white"/>
</svg>
