<svg width="22" height="22" viewBox="0 0 22 22" fill="none" xmlns="http://www.w3.org/2000/svg">
<path d="M12.2929 11L16.2346 7.0675C16.4072 6.89489 16.5042 6.66077 16.5042 6.41666C16.5042 6.17255 16.4072 5.93844 16.2346 5.76583C16.062 5.59322 15.8279 5.49625 15.5838 5.49625C15.3397 5.49625 15.1055 5.59322 14.9329 5.76583L11.0004 9.7075L7.06793 5.76583C6.89532 5.59322 6.66121 5.49625 6.4171 5.49625C6.17299 5.49625 5.93888 5.59322 5.76627 5.76583C5.59365 5.93844 5.49668 6.17255 5.49668 6.41666C5.49668 6.66077 5.59365 6.89489 5.76627 7.0675L9.70793 11L5.76627 14.9325C5.68035 15.0177 5.61215 15.1191 5.56562 15.2308C5.51908 15.3425 5.49512 15.4623 5.49512 15.5833C5.49512 15.7043 5.51908 15.8242 5.56562 15.9359C5.61215 16.0476 5.68035 16.1489 5.76627 16.2342C5.85148 16.3201 5.95287 16.3883 6.06457 16.4348C6.17627 16.4814 6.29609 16.5053 6.4171 16.5053C6.53811 16.5053 6.65792 16.4814 6.76963 16.4348C6.88133 16.3883 6.98272 16.3201 7.06793 16.2342L11.0004 12.2925L14.9329 16.2342C15.0181 16.3201 15.1195 16.3883 15.2312 16.4348C15.3429 16.4814 15.4628 16.5053 15.5838 16.5053C15.7048 16.5053 15.8246 16.4814 15.9363 16.4348C16.048 16.3883 16.1494 16.3201 16.2346 16.2342C16.3205 16.1489 16.3887 16.0476 16.4353 15.9359C16.4818 15.8242 16.5057 15.7043 16.5057 15.5833C16.5057 15.4623 16.4818 15.3425 16.4353 15.2308C16.3887 15.1191 16.3205 15.0177 16.2346 14.9325L12.2929 11Z" fill="#787A81"/>
</svg>
