<svg width="50" height="50" viewBox="0 0 50 50" fill="none" xmlns="http://www.w3.org/2000/svg">
<g clip-path="url(#clip0_84_128)">
<path fill-rule="evenodd" clip-rule="evenodd" d="M49.9812 17.1031C49.976 17.0698 49.9688 17.0406 49.9646 17.0094C49.9543 16.9488 49.9415 16.8887 49.9261 16.8292C49.9167 16.7938 49.9031 16.7594 49.8917 16.725C49.8752 16.6724 49.8572 16.6203 49.8375 16.5688C49.8231 16.5332 49.8067 16.4984 49.7885 16.4646C49.7677 16.4153 49.7433 16.3676 49.7156 16.3219C49.6969 16.2875 49.675 16.2542 49.6552 16.2219C49.5766 16.0993 49.4855 15.9851 49.3834 15.8813C49.3542 15.8531 49.3281 15.8229 49.2979 15.7979C49.2584 15.7627 49.2181 15.7283 49.1771 15.6948C49.1438 15.6698 49.1125 15.6448 49.0792 15.6219L49.0437 15.5948L26.1916 0.36042C25.8387 0.125237 25.4241 -0.000244141 25 -0.000244141C24.5759 -0.000244141 24.1613 0.125237 23.8084 0.36042L0.957298 15.5948L0.921885 15.6219C0.844756 15.6755 0.771623 15.7347 0.703112 15.799C0.672904 15.8229 0.644771 15.8531 0.616646 15.8813C0.580187 15.9188 0.543779 15.9573 0.511487 15.9979C0.449236 16.0669 0.394075 16.1419 0.346883 16.2219C0.325008 16.2542 0.305219 16.2875 0.284386 16.3219C0.257921 16.368 0.233583 16.4152 0.211461 16.4635C0.195836 16.4969 0.178146 16.5323 0.164604 16.5688C0.141688 16.6208 0.125004 16.6719 0.108337 16.725C0.0968791 16.7594 0.0843974 16.7938 0.0750224 16.8292C0.0593974 16.8875 0.0489695 16.9479 0.0375112 17.0094C0.0312612 17.0406 0.0239787 17.0698 0.0208537 17.1031C0.00835368 17.1938 0 17.2875 0 17.3823V32.6167C0 32.7104 0.00835368 32.8042 0.0208537 32.8979C0.0239787 32.9281 0.0312612 32.9594 0.0375112 32.9906C0.0479279 33.0521 0.0593974 33.1104 0.0750224 33.1708C0.0843974 33.2063 0.0968791 33.2406 0.108337 33.275C0.125004 33.3271 0.141648 33.3792 0.163523 33.4323C0.178107 33.4677 0.194819 33.5011 0.210444 33.5365C0.234402 33.5844 0.257302 33.6313 0.284386 33.6802C0.305219 33.7125 0.325008 33.7458 0.346883 33.7781C0.423883 33.9013 0.514764 34.0153 0.617727 34.1177C0.645852 34.1469 0.672904 34.175 0.703112 34.201C0.771623 34.2653 0.844756 34.3245 0.921885 34.3781L0.957298 34.4052L23.8084 49.6396C24.1612 49.875 24.5758 50.0007 25 50.0007C25.4242 50.0007 25.8388 49.875 26.1916 49.6396L49.0437 34.4052L49.0792 34.3781C49.1125 34.3552 49.1438 34.3302 49.1771 34.3052C49.2182 34.2714 49.2584 34.2367 49.2979 34.201C49.3281 34.175 49.3542 34.1469 49.3834 34.1177C49.4864 34.0153 49.5773 33.9014 49.6542 33.7781C49.675 33.7458 49.6969 33.7125 49.7156 33.6802C49.7437 33.6313 49.7677 33.5844 49.7885 33.5365C49.8062 33.5011 49.824 33.4677 49.8375 33.4323C49.8583 33.3802 49.875 33.3271 49.8917 33.275C49.9031 33.2406 49.9167 33.2063 49.9271 33.1708C49.9417 33.1104 49.9531 33.0521 49.9646 32.9906C49.9688 32.9594 49.976 32.9281 49.9812 32.899C49.9937 32.8052 50 32.7115 50 32.6177V17.3833C50 17.2875 49.9937 17.1938 49.9812 17.1031ZM27.1479 6.16356L43.9823 17.3854L36.4646 22.4156L27.1489 16.1844V6.16356H27.1479ZM22.8511 6.16356V16.1844L13.5375 22.4156L6.01667 17.3854L22.8521 6.16356H22.8511ZM4.29688 21.4042L9.67394 25L4.29688 28.5958V21.4042ZM22.8521 43.8365L6.01768 32.6146L13.5375 27.5854L22.8521 33.8156V43.8365ZM25 30.0833L17.4021 25L25 19.9167L32.6 25L25 30.0833ZM27.1489 43.8365V33.8156L36.4635 27.5865L43.9823 32.6146L27.1489 43.8365ZM45.7031 28.5958L40.3282 25L45.7031 21.4042V28.5958Z" fill="red"/>
</g>
<defs>
<clipPath id="clip0_84_128">
<rect width="50" height="50" fill="white"/>
</clipPath>
</defs>
</svg>
