<svg width="35" height="36" viewBox="0 0 35 36" fill="none" xmlns="http://www.w3.org/2000/svg">
<g clip-path="url(#clip0_240_31)">
<path fill-rule="evenodd" clip-rule="evenodd" d="M34.9869 11.9748C34.9832 11.9515 34.9781 11.9311 34.9752 11.9092C34.968 11.8668 34.959 11.8247 34.9482 11.783C34.9417 11.7582 34.9322 11.7342 34.9242 11.7101C34.9127 11.6733 34.9 11.6368 34.8862 11.6007C34.8761 11.5758 34.8647 11.5515 34.852 11.5278C34.8374 11.4933 34.8203 11.46 34.8009 11.4279C34.7878 11.4039 34.7725 11.3805 34.7587 11.3579C34.7036 11.2721 34.6399 11.1922 34.5683 11.1195C34.5479 11.0998 34.5297 11.0787 34.5085 11.0612C34.4809 11.0365 34.4527 11.0124 34.424 10.989C34.4006 10.9715 34.3788 10.954 34.3554 10.9379L34.3306 10.919L18.3342 0.254906C18.0871 0.090278 17.7969 0.00244141 17.5 0.00244141C17.2031 0.00244141 16.9129 0.090278 16.6658 0.254906L0.670109 10.919L0.64532 10.9379C0.59133 10.9755 0.540136 11.0169 0.492179 11.0619C0.471033 11.0787 0.45134 11.0998 0.431652 11.1195C0.406131 11.1457 0.380645 11.1727 0.358041 11.2012C0.314465 11.2494 0.275852 11.3019 0.242818 11.3579C0.227506 11.3805 0.213653 11.4039 0.19907 11.4279C0.180545 11.4602 0.163508 11.4933 0.148023 11.5271C0.137085 11.5504 0.124702 11.5752 0.115223 11.6007C0.0991813 11.6372 0.0875029 11.6729 0.0758362 11.7101C0.0678153 11.7342 0.0590782 11.7582 0.0525157 11.783C0.0415782 11.8239 0.0342787 11.8662 0.0262578 11.9092C0.0218828 11.9311 0.0167851 11.9515 0.0145976 11.9748C0.00584758 12.0382 0 12.1039 0 12.1702V22.8343C0 22.8999 0.00584758 22.9655 0.0145976 23.0312C0.0167851 23.0523 0.0218828 23.0742 0.0262578 23.0961C0.0335495 23.1391 0.0415782 23.1799 0.0525157 23.2222C0.0590782 23.247 0.0678153 23.2711 0.0758362 23.2951C0.0875029 23.3316 0.0991539 23.368 0.114466 23.4052C0.124675 23.43 0.136373 23.4534 0.147311 23.4781C0.164082 23.5117 0.180112 23.5445 0.19907 23.5788C0.213653 23.6014 0.227506 23.6247 0.242818 23.6473C0.296718 23.7335 0.360335 23.8133 0.432409 23.885C0.452096 23.9054 0.471033 23.9251 0.492179 23.9433C0.540136 23.9883 0.59133 24.0298 0.64532 24.0673L0.670109 24.0863L16.6658 34.7503C16.9128 34.9151 17.2031 35.0031 17.5 35.0031C17.7969 35.0031 18.0872 34.9151 18.3342 34.7503L34.3306 24.0863L34.3554 24.0673C34.3788 24.0513 34.4006 24.0338 34.424 24.0163C34.4527 23.9926 34.4809 23.9683 34.5085 23.9433C34.5297 23.9251 34.5479 23.9054 34.5683 23.885C34.6405 23.8133 34.7041 23.7336 34.7579 23.6473C34.7725 23.6247 34.7878 23.6014 34.8009 23.5788C34.8206 23.5445 34.8374 23.5117 34.852 23.4781C34.8644 23.4534 34.8768 23.43 34.8862 23.4052C34.9008 23.3688 34.9125 23.3316 34.9242 23.2951C34.9322 23.2711 34.9417 23.247 34.949 23.2222C34.9592 23.1799 34.9672 23.1391 34.9752 23.0961C34.9781 23.0742 34.9832 23.0523 34.9869 23.0319C34.9956 22.9663 35 22.9006 35 22.835V12.171C35 12.1039 34.9956 12.0382 34.9869 11.9748ZM19.0036 4.3171L30.7876 12.1724L25.5252 15.6936L19.0043 11.3317V4.3171H19.0036ZM15.9957 4.3171V11.3317L9.47623 15.6936L4.21167 12.1724L15.9965 4.3171H15.9957ZM3.00781 14.9855L6.77176 17.5026L3.00781 20.0197V14.9855ZM15.9965 30.6881L4.21238 22.8328L9.47623 19.3124L15.9965 23.6736V30.6881ZM17.5 21.061L12.1815 17.5026L17.5 13.9443L22.82 17.5026L17.5 21.061ZM19.0043 30.6881V23.6736L25.5245 19.3131L30.7876 22.8328L19.0043 30.6881ZM31.9922 20.0197L28.2297 17.5026L31.9922 14.9855V20.0197Z" fill="#D6D9E4"/>
</g>
<defs>
<clipPath id="clip0_240_31">
<rect width="35" height="35" fill="white" transform="translate(0 0.00292969)"/>
</clipPath>
</defs>
</svg>
