<svg width="35" height="36" viewBox="0 0 35 36" fill="none" xmlns="http://www.w3.org/2000/svg">
<g clip-path="url(#clip0_80_40)">
<path fill-rule="evenodd" clip-rule="evenodd" d="M34.9869 12.969C34.9832 12.9456 34.9781 12.9252 34.9752 12.9033C34.968 12.8609 34.959 12.8188 34.9482 12.7772C34.9417 12.7524 34.9322 12.7283 34.9242 12.7043C34.9127 12.6674 34.9 12.6309 34.8862 12.5949C34.8761 12.57 34.8647 12.5456 34.852 12.522C34.8374 12.4875 34.8203 12.4541 34.8009 12.4221C34.7878 12.398 34.7725 12.3747 34.7587 12.3521C34.7036 12.2662 34.6399 12.1863 34.5683 12.1136C34.5479 12.0939 34.5297 12.0728 34.5085 12.0553C34.4809 12.0306 34.4527 12.0065 34.424 11.9831C34.4006 11.9656 34.3788 11.9481 34.3554 11.9321L34.3306 11.9131L18.3342 1.24905C18.0871 1.08442 17.7969 0.996582 17.5 0.996582C17.2031 0.996582 16.9129 1.08442 16.6658 1.24905L0.670109 11.9131L0.64532 11.9321C0.59133 11.9696 0.540136 12.011 0.492179 12.056C0.471033 12.0728 0.45134 12.0939 0.431652 12.1136C0.406131 12.1399 0.380645 12.1669 0.358041 12.1953C0.314465 12.2436 0.275852 12.2961 0.242818 12.3521C0.227506 12.3747 0.213653 12.398 0.19907 12.4221C0.180545 12.4543 0.163508 12.4874 0.148023 12.5212C0.137085 12.5446 0.124702 12.5694 0.115223 12.5949C0.0991813 12.6313 0.0875029 12.6671 0.0758362 12.7043C0.0678153 12.7283 0.0590782 12.7524 0.0525157 12.7772C0.0415782 12.818 0.0342787 12.8603 0.0262578 12.9033C0.0218828 12.9252 0.0167851 12.9456 0.0145976 12.969C0.00584758 13.0324 0 13.098 0 13.1644V23.8284C0 23.8941 0.00584758 23.9597 0.0145976 24.0253C0.0167851 24.0464 0.0218828 24.0683 0.0262578 24.0902C0.0335495 24.1332 0.0415782 24.174 0.0525157 24.2163C0.0590782 24.2411 0.0678153 24.2652 0.0758362 24.2893C0.0875029 24.3257 0.0991539 24.3622 0.114466 24.3994C0.124675 24.4242 0.136373 24.4475 0.147311 24.4723C0.164082 24.5058 0.180112 24.5386 0.19907 24.5729C0.213653 24.5955 0.227506 24.6188 0.242818 24.6414C0.296718 24.7277 0.360335 24.8074 0.432409 24.8792C0.452096 24.8996 0.471033 24.9193 0.492179 24.9375C0.540136 24.9825 0.59133 25.0239 0.64532 25.0615L0.670109 25.0804L16.6658 35.7445C16.9128 35.9093 17.2031 35.9972 17.5 35.9972C17.7969 35.9972 18.0872 35.9093 18.3342 35.7445L34.3306 25.0804L34.3554 25.0615C34.3788 25.0454 34.4006 25.0279 34.424 25.0104C34.4527 24.9867 34.4809 24.9624 34.5085 24.9375C34.5297 24.9193 34.5479 24.8996 34.5683 24.8792C34.6405 24.8075 34.7041 24.7277 34.7579 24.6414C34.7725 24.6188 34.7878 24.5955 34.8009 24.5729C34.8206 24.5386 34.8374 24.5058 34.852 24.4723C34.8644 24.4475 34.8768 24.4242 34.8862 24.3994C34.9008 24.3629 34.9125 24.3257 34.9242 24.2893C34.9322 24.2652 34.9417 24.2411 34.949 24.2163C34.9592 24.174 34.9672 24.1332 34.9752 24.0902C34.9781 24.0683 34.9832 24.0464 34.9869 24.026C34.9956 23.9604 35 23.8948 35 23.8292V13.1651C35 13.098 34.9956 13.0324 34.9869 12.969ZM19.0036 5.31124L30.7876 13.1666L25.5252 16.6877L19.0043 12.3258V5.31124H19.0036ZM15.9957 5.31124V12.3258L9.47623 16.6877L4.21167 13.1666L15.9965 5.31124H15.9957ZM3.00781 15.9797L6.77176 18.4968L3.00781 21.0138V15.9797ZM15.9965 31.6823L4.21238 23.827L9.47623 20.3065L15.9965 24.6677V31.6823ZM17.5 22.0551L12.1815 18.4968L17.5 14.9384L22.82 18.4968L17.5 22.0551ZM19.0043 31.6823V24.6677L25.5245 20.3073L30.7876 23.827L19.0043 31.6823ZM31.9922 21.0138L28.2297 18.4968L31.9922 15.9797V21.0138Z" fill="#31343E"/>
</g>
<defs>
<clipPath id="clip0_80_40">
<rect width="35" height="35" fill="white" transform="translate(0 0.99707)"/>
</clipPath>
</defs>
</svg>
