<svg width="22" height="22" viewBox="0 0 22 22" fill="none" xmlns="http://www.w3.org/2000/svg">
<g clip-path="url(#clip0_80_73)">
<path d="M19.3602 5.06006H2.6402C2.3982 5.06006 2.2002 5.25806 2.2002 5.50006V16.5001C2.2002 16.7421 2.3982 16.9401 2.6402 16.9401H19.3602C19.6022 16.9401 19.8002 16.7421 19.8002 16.5001V5.50006C19.8002 5.25806 19.6022 5.06006 19.3602 5.06006ZM18.3042 5.94006L11.0002 13.2441L3.6962 5.94006H18.3042ZM3.0802 6.55606L7.5242 11.0001L3.0802 15.4441V6.55606ZM3.7182 16.0601L8.1402 11.6381L10.6922 14.1901C10.8682 14.3661 11.1322 14.3661 11.3082 14.1901L13.8602 11.6381L18.2822 16.0601H3.7182ZM18.9202 15.4441L14.4762 11.0001L18.9202 6.55606V15.4441Z" fill="#31343E"/>
<path d="M176.88 -112.2V258.28H-215.6V-112.2H176.88ZM178.64 -113.96H-217.36V260.04H178.64V-113.96Z" fill="#0000FF"/>
</g>
<defs>
<clipPath id="clip0_80_73">
<rect width="22" height="22" fill="white"/>
</clipPath>
</defs>
</svg>
