<svg width="22" height="23" viewBox="0 0 22 23" fill="none" xmlns="http://www.w3.org/2000/svg">
<g clip-path="url(#clip0_240_52)">
<path d="M19.3602 5.06323H2.6402C2.3982 5.06323 2.2002 5.26123 2.2002 5.50323V16.5032C2.2002 16.7452 2.3982 16.9432 2.6402 16.9432H19.3602C19.6022 16.9432 19.8002 16.7452 19.8002 16.5032V5.50323C19.8002 5.26123 19.6022 5.06323 19.3602 5.06323ZM18.3042 5.94323L11.0002 13.2472L3.6962 5.94323H18.3042ZM3.0802 6.55923L7.5242 11.0032L3.0802 15.4472V6.55923ZM3.7182 16.0632L8.1402 11.6412L10.6922 14.1932C10.8682 14.3692 11.1322 14.3692 11.3082 14.1932L13.8602 11.6412L18.2822 16.0632H3.7182ZM18.9202 15.4472L14.4762 11.0032L18.9202 6.55923V15.4472Z" fill="#D6D9E4"/>
<path d="M176.88 -112.197V258.283H-215.6V-112.197H176.88ZM178.64 -113.957H-217.36V260.043H178.64V-113.957Z" fill="#0000FF"/>
</g>
<defs>
<clipPath id="clip0_240_52">
<rect width="22" height="22" fill="white" transform="translate(0 0.00317383)"/>
</clipPath>
</defs>
</svg>
