<svg width="50" height="50" viewBox="0 0 50 50" fill="none" xmlns="http://www.w3.org/2000/svg">
<path d="M24.9999 4.68066C20.053 4.68087 15.2675 6.44132 11.4998 9.64701C7.73212 12.8527 5.22802 17.2945 4.43559 22.1775C3.64316 27.0605 4.6141 32.0662 7.17468 36.2989C9.73527 40.5316 13.7184 43.715 18.4114 45.2796C19.4531 45.4619 19.8437 44.837 19.8437 44.29C19.8437 43.7952 19.8176 42.1546 19.8176 40.4098C14.5832 41.3733 13.2291 39.1338 12.8124 37.962C12.3501 36.8222 11.6171 35.8122 10.677 35.0192C9.94781 34.6286 8.90614 33.665 10.6509 33.639C11.3171 33.7113 11.9561 33.9432 12.5137 34.3149C13.0713 34.6866 13.5311 35.1872 13.8541 35.7744C14.139 36.2863 14.5221 36.7369 14.9815 37.1004C15.4409 37.464 15.9676 37.7333 16.5312 37.893C17.0949 38.0526 17.6845 38.0995 18.2663 38.0309C18.8481 37.9623 19.4107 37.7795 19.9217 37.4931C20.0119 36.434 20.4839 35.4438 21.2499 34.7068C16.6145 34.1859 11.7707 32.389 11.7707 24.4203C11.7415 22.3498 12.5055 20.3465 13.9061 18.8214C13.2692 17.0218 13.3438 15.0469 14.1145 13.3005C14.1145 13.3005 15.8592 12.7536 19.8436 15.4359C23.2526 14.4984 26.8514 14.4984 30.2603 15.4359C34.2446 12.7276 35.9895 13.3005 35.9895 13.3005C36.7603 15.0469 36.8348 17.0218 36.1978 18.8214C37.6027 20.3439 38.3674 22.3489 38.3332 24.4203C38.3332 32.415 33.4634 34.1859 28.828 34.7068C29.3252 35.2107 29.7081 35.8157 29.9508 36.4807C30.1934 37.1458 30.2901 37.8552 30.2343 38.5609C30.2343 41.3474 30.2082 43.5869 30.2082 44.2901C30.2082 44.837 30.5988 45.488 31.6405 45.2797C36.3252 43.7023 40.2969 40.5114 42.8466 36.2766C45.3963 32.0418 46.358 27.0386 45.5601 22.1603C44.7621 17.282 42.2565 12.846 38.4905 9.64423C34.7244 6.44244 29.943 4.68324 24.9999 4.68066Z" fill="#4C4F5A"/>
</svg>
