<svg width="35" height="36" viewBox="0 0 35 36" fill="none" xmlns="http://www.w3.org/2000/svg">
<path d="M17.5004 3.27954C14.0375 3.27968 10.6877 4.512 8.05031 6.75599C5.41292 8.99997 3.66005 12.1092 3.10535 15.5273C2.55065 18.9455 3.23031 22.4494 5.02272 25.4123C6.81513 28.3752 9.60332 30.6036 12.8884 31.6988C13.6176 31.8264 13.891 31.3889 13.891 31.0061C13.891 30.6597 13.8728 29.5113 13.8728 28.29C10.2087 28.9644 9.26078 27.3968 8.96912 26.5765C8.64548 25.7786 8.13243 25.0716 7.47432 24.5165C6.96391 24.2431 6.23474 23.5686 7.45608 23.5504C7.92244 23.601 8.36972 23.7633 8.76004 24.0235C9.15035 24.2837 9.47219 24.6341 9.69828 25.0452C9.89774 25.4035 10.1659 25.7189 10.4875 25.9734C10.8091 26.2279 11.1777 26.4164 11.5723 26.5281C11.9669 26.6399 12.3796 26.6727 12.7869 26.6247C13.1941 26.5767 13.5879 26.4488 13.9456 26.2483C14.0088 25.5069 14.3392 24.8137 14.8754 24.2978C11.6306 23.9332 8.23995 22.6754 8.23995 17.0973C8.21946 15.6479 8.75428 14.2456 9.73474 13.178C9.2889 11.9183 9.34107 10.5359 9.88057 9.31344C9.88057 9.31344 11.1019 8.93061 13.891 10.8082C16.2772 10.1519 18.7964 10.1519 21.1827 10.8082C23.9717 8.9124 25.1931 9.31344 25.1931 9.31344C25.7327 10.5359 25.7848 11.9184 25.3389 13.178C26.3223 14.2438 26.8576 15.6473 26.8337 17.0973C26.8337 22.6936 23.4248 23.9332 20.1801 24.2978C20.5281 24.6506 20.7961 25.0741 20.966 25.5396C21.1358 26.0051 21.2035 26.5017 21.1644 26.9957C21.1644 28.9463 21.1462 30.5139 21.1462 31.0061C21.1462 31.389 21.4196 31.8447 22.1488 31.6989C25.4281 30.5947 28.2083 28.3611 29.9931 25.3967C31.7778 22.4323 32.451 18.9301 31.8925 15.5153C31.3339 12.1005 29.58 8.99529 26.9438 6.75404C24.3075 4.51278 20.9606 3.28134 17.5004 3.27954Z" fill="#D6D9E4"/>
</svg>
