<svg width="35" height="36" viewBox="0 0 35 36" fill="none" xmlns="http://www.w3.org/2000/svg">
<path d="M17.5004 4.27344C14.0375 4.27358 10.6877 5.5059 8.05031 7.74988C5.41292 9.99387 3.66005 13.1031 3.10535 16.5212C2.55065 19.9394 3.23031 23.4433 5.02272 26.4062C6.81513 29.3691 9.60332 31.5975 12.8884 32.6927C13.6176 32.8203 13.891 32.3828 13.891 32C13.891 31.6536 13.8728 30.5052 13.8728 29.2839C10.2087 29.9583 9.26078 28.3907 8.96912 27.5704C8.64548 26.7725 8.13243 26.0655 7.47432 25.5104C6.96391 25.237 6.23474 24.5625 7.45608 24.5443C7.92244 24.5949 8.36972 24.7572 8.76004 25.0174C9.15035 25.2776 9.47219 25.628 9.69828 26.039C9.89774 26.3974 10.1659 26.7128 10.4875 26.9673C10.8091 27.2218 11.1777 27.4103 11.5723 27.522C11.9669 27.6338 12.3796 27.6666 12.7869 27.6186C13.1941 27.5706 13.5879 27.4427 13.9456 27.2422C14.0088 26.5008 14.3392 25.8076 14.8754 25.2917C11.6306 24.9271 8.23995 23.6693 8.23995 18.0912C8.21946 16.6418 8.75428 15.2395 9.73474 14.1719C9.2889 12.9122 9.34107 11.5298 9.88057 10.3073C9.88057 10.3073 11.1019 9.92451 13.891 11.8021C16.2772 11.1458 18.7964 11.1458 21.1827 11.8021C23.9717 9.90629 25.1931 10.3073 25.1931 10.3073C25.7327 11.5298 25.7848 12.9123 25.3389 14.1719C26.3223 15.2377 26.8576 16.6412 26.8337 18.0912C26.8337 23.6875 23.4248 24.9271 20.1801 25.2917C20.5281 25.6445 20.7961 26.068 20.966 26.5335C21.1358 26.999 21.2035 27.4956 21.1644 27.9896C21.1644 29.9402 21.1462 31.5078 21.1462 32C21.1462 32.3829 21.4196 32.8386 22.1488 32.6928C25.4281 31.5886 28.2083 29.355 29.9931 26.3906C31.7778 23.4262 32.451 19.924 31.8925 16.5092C31.3339 13.0944 29.58 9.98919 26.9438 7.74793C24.3075 5.50668 20.9606 4.27524 17.5004 4.27344Z" fill="#31343E"/>
</svg>
