<svg width="50" height="36" viewBox="0 0 50 36" fill="none" xmlns="http://www.w3.org/2000/svg">
<path d="M0 28.6462L5.73926 25.1728C6.84668 27.1359 7.85391 28.7971 10.27 28.7971C12.5859 28.7971 14.0464 27.8912 14.0464 24.3674V0.403125H21.0943V24.467C21.0943 31.7669 16.8152 35.0897 10.5721 35.0897C4.93389 35.0897 1.66143 32.1703 0 28.6462ZM24.9226 27.8909L30.6612 24.5684C32.1721 27.0354 34.1356 28.8478 37.609 28.8478C40.5296 28.8478 42.3917 27.3876 42.3917 25.3737C42.3917 22.9573 40.4786 22.1013 37.2566 20.6921L35.4949 19.9362C30.4099 17.7721 27.0369 15.0533 27.0369 9.31407C27.0369 4.02774 31.0644 0 37.3576 0C41.8383 0 45.0604 1.56094 47.376 5.63877L41.8881 9.16318C40.6796 6.99844 39.3712 6.14267 37.3573 6.14267C35.2931 6.14267 33.9841 7.45166 33.9841 9.16318C33.9841 11.2775 35.2931 12.1339 38.3136 13.4429L40.0755 14.1979C46.0667 16.7657 49.4397 19.3834 49.4397 25.2732C49.4397 31.6172 44.4557 35.0906 37.7599 35.0906C31.2152 35.0906 26.9865 31.969 24.9226 27.8909Z" fill="white"/>
</svg>
