<svg width="50" height="50" viewBox="0 0 50 50" fill="none" xmlns="http://www.w3.org/2000/svg">
<path d="M42.6459 4.16655H7.35425C6.95754 4.16104 6.56362 4.23373 6.19501 4.38048C5.82639 4.52722 5.4903 4.74514 5.20591 5.02178C4.92152 5.29843 4.69442 5.62839 4.53756 5.99282C4.38071 6.35725 4.29718 6.74901 4.29175 7.14572V42.854C4.29718 43.2508 4.38071 43.6425 4.53756 44.0069C4.69442 44.3714 4.92152 44.7013 5.20591 44.978C5.4903 45.2546 5.82639 45.4725 6.19501 45.6193C6.56362 45.766 6.95754 45.8387 7.35425 45.8332H42.6459C43.0426 45.8387 43.4365 45.766 43.8052 45.6193C44.1738 45.4725 44.5099 45.2546 44.7943 44.978C45.0786 44.7013 45.3057 44.3714 45.4626 44.0069C45.6194 43.6425 45.703 43.2508 45.7084 42.854V7.14572C45.703 6.74901 45.6194 6.35725 45.4626 5.99282C45.3057 5.62839 45.0786 5.29843 44.7943 5.02178C44.5099 4.74514 44.1738 4.52722 43.8052 4.38048C43.4365 4.23373 43.0426 4.16104 42.6459 4.16655ZM16.8542 39.0415H10.6042V20.2915H16.8542V39.0415ZM13.7292 17.6665C12.8673 17.6665 12.0406 17.3241 11.4312 16.7146C10.8217 16.1052 10.4792 15.2785 10.4792 14.4166C10.4792 13.5546 10.8217 12.7279 11.4312 12.1185C12.0406 11.509 12.8673 11.1666 13.7292 11.1666C14.1869 11.1146 14.6504 11.16 15.0894 11.2996C15.5284 11.4393 15.9329 11.6701 16.2764 11.9769C16.62 12.2837 16.8949 12.6596 17.0831 13.0801C17.2714 13.5005 17.3687 13.9559 17.3687 14.4166C17.3687 14.8772 17.2714 15.3326 17.0831 15.753C16.8949 16.1735 16.62 16.5494 16.2764 16.8562C15.9329 17.163 15.5284 17.3938 15.0894 17.5335C14.6504 17.6731 14.1869 17.7185 13.7292 17.6665ZM39.3959 39.0415H33.1459V28.979C33.1459 26.4582 32.2501 24.8124 29.9792 24.8124C29.2765 24.8175 28.5921 25.038 28.0185 25.444C27.4448 25.85 27.0094 26.4221 26.7709 27.0832C26.6079 27.5729 26.5372 28.0886 26.5626 28.604V39.0207H20.3126C20.3126 39.0207 20.3126 21.979 20.3126 20.2707H26.5626V22.9166C27.1304 21.9314 27.9561 21.1197 28.951 20.5691C29.9459 20.0184 31.0721 19.7496 32.2084 19.7916C36.3751 19.7916 39.3959 22.4791 39.3959 28.2499V39.0415Z" fill="#4C4F5A"/>
</svg>
