<svg width="35" height="36" viewBox="0 0 35 36" fill="none" xmlns="http://www.w3.org/2000/svg">
<path d="M29.8518 3.91378H5.14766C4.86996 3.90992 4.59422 3.96081 4.33619 4.06353C4.07816 4.16624 3.84289 4.31879 3.64382 4.51244C3.44475 4.7061 3.28578 4.93707 3.17598 5.19217C3.06618 5.44727 3.00771 5.7215 3.00391 5.99919V30.995C3.00771 31.2727 3.06618 31.547 3.17598 31.8021C3.28578 32.0572 3.44475 32.2881 3.64382 32.4818C3.84289 32.6754 4.07816 32.828 4.33619 32.9307C4.59422 33.0334 4.86996 33.0843 5.14766 33.0804H29.8518C30.1295 33.0843 30.4053 33.0334 30.6633 32.9307C30.9213 32.828 31.1566 32.6754 31.3557 32.4818C31.5547 32.2881 31.7137 32.0572 31.8235 31.8021C31.9333 31.547 31.9918 31.2727 31.9956 30.995V5.99919C31.9918 5.7215 31.9333 5.44727 31.8235 5.19217C31.7137 4.93707 31.5547 4.7061 31.3557 4.51244C31.1566 4.31879 30.9213 4.16624 30.6633 4.06353C30.4053 3.96081 30.1295 3.90992 29.8518 3.91378ZM11.7977 28.3263H7.42266V15.2013H11.7977V28.3263ZM9.61016 13.3638C9.00679 13.3638 8.42813 13.1241 8.00149 12.6974C7.57484 12.2708 7.33516 11.6921 7.33516 11.0888C7.33516 10.4854 7.57484 9.90676 8.00149 9.48011C8.42813 9.05347 9.00679 8.81378 9.61016 8.81378C9.93055 8.77744 10.255 8.80919 10.5623 8.90694C10.8695 9.00469 11.1527 9.16624 11.3932 9.38101C11.6337 9.59579 11.8261 9.85893 11.9579 10.1532C12.0896 10.4475 12.1577 10.7663 12.1577 11.0888C12.1577 11.4112 12.0896 11.73 11.9579 12.0243C11.8261 12.3186 11.6337 12.5818 11.3932 12.7965C11.1527 13.0113 10.8695 13.1729 10.5623 13.2706C10.255 13.3684 9.93055 13.4001 9.61016 13.3638ZM27.5768 28.3263H23.2018V21.2825C23.2018 19.5179 22.5747 18.3659 20.9852 18.3659C20.4932 18.3695 20.0142 18.5238 19.6126 18.808C19.2111 19.0922 18.9063 19.4927 18.7393 19.9554C18.6252 20.2982 18.5758 20.6592 18.5935 21.02V28.3117H14.2185C14.2185 28.3117 14.2185 16.3825 14.2185 15.1867H18.5935V17.0388C18.9909 16.3491 19.569 15.781 20.2654 15.3955C20.9618 15.0101 21.7502 14.8219 22.5456 14.8513C25.4622 14.8513 27.5768 16.7325 27.5768 20.7721V28.3263Z" fill="#31343E"/>
</svg>
