<svg width="35" height="36" viewBox="0 0 35 36" fill="none" xmlns="http://www.w3.org/2000/svg">
<path d="M29.8518 2.91988H5.14766C4.86996 2.91602 4.59422 2.96691 4.33619 3.06963C4.07816 3.17235 3.84289 3.32489 3.64382 3.51854C3.44475 3.7122 3.28578 3.94317 3.17598 4.19827C3.06618 4.45337 3.00771 4.7276 3.00391 5.0053V30.0011C3.00771 30.2788 3.06618 30.5531 3.17598 30.8082C3.28578 31.0633 3.44475 31.2942 3.64382 31.4879C3.84289 31.6815 4.07816 31.8341 4.33619 31.9368C4.59422 32.0395 4.86996 32.0904 5.14766 32.0865H29.8518C30.1295 32.0904 30.4053 32.0395 30.6633 31.9368C30.9213 31.8341 31.1566 31.6815 31.3557 31.4879C31.5547 31.2942 31.7137 31.0633 31.8235 30.8082C31.9333 30.5531 31.9918 30.2788 31.9956 30.0011V5.0053C31.9918 4.7276 31.9333 4.45337 31.8235 4.19827C31.7137 3.94317 31.5547 3.7122 31.3557 3.51854C31.1566 3.32489 30.9213 3.17235 30.6633 3.06963C30.4053 2.96691 30.1295 2.91602 29.8518 2.91988ZM11.7977 27.3324H7.42266V14.2074H11.7977V27.3324ZM9.61016 12.3699C9.00679 12.3699 8.42813 12.1302 8.00149 11.7035C7.57484 11.2769 7.33516 10.6982 7.33516 10.0949C7.33516 9.49151 7.57484 8.91286 8.00149 8.48621C8.42813 8.05957 9.00679 7.81988 9.61016 7.81988C9.93055 7.78355 10.255 7.81529 10.5623 7.91304C10.8695 8.0108 11.1527 8.17235 11.3932 8.38712C11.6337 8.60189 11.8261 8.86504 11.9579 9.15933C12.0896 9.45363 12.1577 9.77244 12.1577 10.0949C12.1577 10.4173 12.0896 10.7361 11.9579 11.0304C11.8261 11.3247 11.6337 11.5879 11.3932 11.8026C11.1527 12.0174 10.8695 12.179 10.5623 12.2767C10.255 12.3745 9.93055 12.4062 9.61016 12.3699ZM27.5768 27.3324H23.2018V20.2886C23.2018 18.524 22.5747 17.372 20.9852 17.372C20.4932 17.3756 20.0142 17.5299 19.6126 17.8141C19.2111 18.0983 18.9063 18.4988 18.7393 18.9615C18.6252 19.3043 18.5758 19.6653 18.5935 20.0261V27.3178H14.2185C14.2185 27.3178 14.2185 15.3886 14.2185 14.1928H18.5935V16.0449C18.9909 15.3552 19.569 14.7871 20.2654 14.4016C20.9618 14.0162 21.7502 13.828 22.5456 13.8574C25.4622 13.8574 27.5768 15.7386 27.5768 19.7782V27.3324Z" fill="#D6D9E4"/>
</svg>
