<svg width="20" height="21" viewBox="0 0 20 21" fill="none" xmlns="http://www.w3.org/2000/svg">
<g clip-path="url(#clip0_240_44)">
<path d="M9.99259 0.000732422C6.89339 0.000732422 4.36758 2.52648 4.36759 5.62573C4.36668 5.6928 4.37657 5.75957 4.39688 5.82349C4.4501 7.79636 5.30485 9.52313 6.31095 11.1238C7.34971 12.7764 8.55361 14.3273 9.32608 15.9089C9.37685 16.0133 9.45569 16.1016 9.55378 16.1637C9.65186 16.2258 9.7653 16.2594 9.88139 16.2606C9.99748 16.2619 10.1116 16.2308 10.211 16.1708C10.3105 16.1109 10.3912 16.0244 10.4442 15.9211C11.2553 14.3408 12.521 12.7887 13.6132 11.136C14.7054 9.48336 15.6371 7.6985 15.6371 5.6355C15.6381 5.55625 15.624 5.47755 15.5956 5.40356C15.476 2.40884 13.0158 0.000732422 9.99259 0.000732422ZM9.99259 1.25073C12.4162 1.25073 14.3676 3.20211 14.3676 5.62573C14.3668 5.6708 14.3709 5.71582 14.3798 5.76001C14.3425 7.39476 13.5878 8.90845 12.5707 10.4475C11.7109 11.7486 10.7388 13.092 9.89981 14.488C9.10341 13.098 8.18589 11.757 7.37052 10.4597C6.37818 8.88097 5.63712 7.32775 5.63712 5.6355C5.63711 5.59866 5.63384 5.5619 5.62735 5.52563C5.68152 3.14979 7.60325 1.25073 9.99259 1.25073ZM9.99259 3.75317C8.96446 3.75317 8.11759 4.60005 8.11759 5.62817C8.11759 6.6563 8.96446 7.50317 9.99259 7.50317C11.0207 7.50317 11.8676 6.6563 11.8676 5.62817C11.8676 4.60005 11.0207 3.75317 9.99259 3.75317ZM9.99259 5.00317C10.3452 5.00317 10.6176 5.27567 10.6176 5.62817C10.6176 5.9808 10.3452 6.25317 9.99259 6.25317C9.64001 6.25317 9.36759 5.9808 9.36759 5.62817C9.36759 5.27567 9.64001 5.00317 9.99259 5.00317ZM15.1049 11.5364C14.9589 11.5363 14.8174 11.5874 14.7051 11.6807C14.5928 11.774 14.5167 11.9037 14.49 12.0472C14.4634 12.1908 14.4878 12.3391 14.5591 12.4666C14.6303 12.594 14.744 12.6925 14.8803 12.7449C16.1261 13.2495 16.927 13.9111 17.2729 14.5198C17.6188 15.1284 17.6107 15.6544 17.1581 16.302C16.253 17.5971 13.3636 18.7441 10.0658 18.7581C6.768 18.7718 3.83843 17.6543 2.88077 16.3557C2.40193 15.7063 2.37819 15.1767 2.70011 14.571C3.02202 13.9655 3.79337 13.2982 5.01944 12.7839C5.09739 12.7538 5.16849 12.7083 5.22856 12.6502C5.28863 12.5921 5.33644 12.5226 5.36916 12.4457C5.40188 12.3688 5.41885 12.2861 5.41906 12.2025C5.41928 12.119 5.40273 12.0362 5.3704 11.9591C5.33808 11.8821 5.29062 11.8123 5.23085 11.7539C5.17108 11.6955 5.10021 11.6496 5.02242 11.6191C4.94463 11.5886 4.86151 11.5739 4.77797 11.5761C4.69443 11.5782 4.61216 11.5971 4.53604 11.6316C3.13525 12.2191 2.11534 13.0092 1.59659 13.9851C1.07785 14.9609 1.16763 16.1388 1.87491 17.0979C3.28948 19.0163 6.51375 20.0233 10.0732 20.0081C13.6325 19.9931 16.8266 18.9614 18.1835 17.0198C18.862 16.0489 18.9079 14.8675 18.3593 13.9021C17.8106 12.9367 16.7673 12.1597 15.349 11.5852C15.2717 11.5527 15.1887 11.5361 15.1049 11.5364Z" fill="#D6D9E4"/>
</g>
<defs>
<clipPath id="clip0_240_44">
<rect width="20" height="20" fill="white" transform="translate(0 0.00317383)"/>
</clipPath>
</defs>
</svg>
