<svg width="20" height="20" viewBox="0 0 20 20" fill="none" xmlns="http://www.w3.org/2000/svg">
<g clip-path="url(#clip0_80_65)">
<path d="M9.99259 -0.00244141C6.89339 -0.00244141 4.36758 2.52331 4.36759 5.62256C4.36668 5.68962 4.37657 5.75639 4.39688 5.82031C4.4501 7.79319 5.30485 9.51996 6.31095 11.1206C7.34971 12.7732 8.55361 14.3241 9.32608 15.9058C9.37685 16.0102 9.45569 16.0984 9.55378 16.1605C9.65186 16.2226 9.7653 16.2562 9.88139 16.2575C9.99748 16.2587 10.1116 16.2276 10.211 16.1677C10.3105 16.1077 10.3912 16.0212 10.4442 15.918C11.2553 14.3376 12.521 12.7856 13.6132 11.1328C14.7054 9.48019 15.6371 7.69532 15.6371 5.63232C15.6381 5.55308 15.624 5.47437 15.5956 5.40039C15.476 2.40567 13.0158 -0.00244141 9.99259 -0.00244141ZM9.99259 1.24756C12.4162 1.24756 14.3676 3.19893 14.3676 5.62256C14.3668 5.66763 14.3709 5.71265 14.3798 5.75684C14.3425 7.39158 13.5878 8.90528 12.5707 10.4443C11.7109 11.7455 10.7388 13.0889 9.89981 14.4849C9.10341 13.0949 8.18589 11.7538 7.37052 10.4565C6.37818 8.87779 5.63712 7.32457 5.63712 5.63232C5.63711 5.59549 5.63384 5.55872 5.62735 5.52246C5.68152 3.14661 7.60325 1.24756 9.99259 1.24756ZM9.99259 3.75C8.96446 3.75 8.11759 4.59688 8.11759 5.625C8.11759 6.65312 8.96446 7.5 9.99259 7.5C11.0207 7.5 11.8676 6.65312 11.8676 5.625C11.8676 4.59688 11.0207 3.75 9.99259 3.75ZM9.99259 5C10.3452 5 10.6176 5.2725 10.6176 5.625C10.6176 5.97762 10.3452 6.25 9.99259 6.25C9.64001 6.25 9.36759 5.97762 9.36759 5.625C9.36759 5.2725 9.64001 5 9.99259 5ZM15.1049 11.5332C14.9589 11.5331 14.8174 11.5842 14.7051 11.6775C14.5928 11.7708 14.5167 11.9005 14.49 12.044C14.4634 12.1876 14.4878 12.336 14.5591 12.4634C14.6303 12.5908 14.744 12.6893 14.8803 12.7417C16.1261 13.2463 16.927 13.908 17.2729 14.5166C17.6188 15.1252 17.6107 15.6512 17.1581 16.2988C16.253 17.594 13.3636 18.7409 10.0658 18.7549C6.768 18.7686 3.83843 17.6512 2.88077 16.3525C2.40193 15.7032 2.37819 15.1735 2.70011 14.5679C3.02202 13.9624 3.79337 13.295 5.01944 12.7808C5.09739 12.7506 5.16849 12.7052 5.22856 12.6471C5.28863 12.589 5.33644 12.5194 5.36916 12.4425C5.40188 12.3656 5.41885 12.2829 5.41906 12.1994C5.41928 12.1158 5.40273 12.033 5.3704 11.956C5.33808 11.8789 5.29062 11.8091 5.23085 11.7507C5.17108 11.6923 5.10021 11.6465 5.02242 11.6159C4.94463 11.5854 4.86151 11.5708 4.77797 11.5729C4.69443 11.5751 4.61216 11.5939 4.53604 11.6284C3.13525 12.2159 2.11534 13.0061 1.59659 13.9819C1.07785 14.9577 1.16763 16.1356 1.87491 17.0947C3.28948 19.0131 6.51375 20.0201 10.0732 20.0049C13.6325 19.9899 16.8266 18.9582 18.1835 17.0166C18.862 16.0457 18.9079 14.8643 18.3593 13.8989C17.8106 12.9336 16.7673 12.1565 15.349 11.582C15.2717 11.5495 15.1887 11.5329 15.1049 11.5332Z" fill="#31343E"/>
</g>
<defs>
<clipPath id="clip0_80_65">
<rect width="20" height="20" fill="white"/>
</clipPath>
</defs>
</svg>
