<svg width="30" height="30" viewBox="0 0 30 30" fill="none" xmlns="http://www.w3.org/2000/svg">
<g clip-path="url(#clip0_80_383)">
<path d="M25 13.75C24.3096 13.75 23.75 14.3096 23.75 15C23.75 15.6904 24.3096 16.25 25 16.25C25.6904 16.25 26.25 15.6904 26.25 15C26.25 14.3096 25.6904 13.75 25 13.75Z" fill="#8B95A5"/>
<path d="M4.925 16.25L20.075 16.25C20.7239 16.25 21.25 15.7239 21.25 15.075L21.25 14.925C21.25 14.2761 20.7239 13.75 20.075 13.75L4.925 13.75C4.27607 13.75 3.75 14.2761 3.75 14.925L3.75 15.075C3.75 15.7239 4.27607 16.25 4.925 16.25Z" fill="#8B95A5"/>
<path d="M4.925 10L25.075 10C25.7239 10 26.25 9.47393 26.25 8.825L26.25 8.675C26.25 8.02607 25.7239 7.5 25.075 7.5L4.925 7.5C4.27607 7.5 3.75 8.02606 3.75 8.675L3.75 8.825C3.75 9.47393 4.27607 10 4.925 10Z" fill="#8B95A5"/>
<path d="M4.925 22.5L25.075 22.5C25.7239 22.5 26.25 21.9739 26.25 21.325L26.25 21.175C26.25 20.5261 25.7239 20 25.075 20L4.925 20C4.27607 20 3.75 20.5261 3.75 21.175L3.75 21.325C3.75 21.9739 4.27607 22.5 4.925 22.5Z" fill="#8B95A5"/>
</g>
<defs>
<clipPath id="clip0_80_383">
<rect width="30" height="30" fill="white" transform="translate(30 30) rotate(-180)"/>
</clipPath>
</defs>
</svg>
