<svg width="20" height="20" viewBox="0 0 20 20" fill="none" xmlns="http://www.w3.org/2000/svg">
<path d="M9.375 1.25H10.625V4.375H9.375V1.25Z" fill="#4C4F5A"/>
<path d="M13.5544 5.56248L15.7457 3.37061L16.6294 4.25498L14.4382 6.44623L13.5544 5.56248Z" fill="#4C4F5A"/>
<path d="M15.625 9.375H18.75V10.625H15.625V9.375Z" fill="#4C4F5A"/>
<path d="M13.5544 14.4375L14.4382 13.5537L16.6294 15.745L15.7457 16.6293L13.5544 14.4375Z" fill="#4C4F5A"/>
<path d="M9.375 15.625H10.625V18.75H9.375V15.625Z" fill="#4C4F5A"/>
<path d="M3.37134 15.745L5.56259 13.5537L6.44634 14.4381L4.25509 16.6293L3.37134 15.745Z" fill="#4C4F5A"/>
<path d="M1.25 9.375H4.375V10.625H1.25V9.375Z" fill="#4C4F5A"/>
<path d="M3.37134 4.25498L4.25509 3.37061L6.44634 5.56248L5.56259 6.44623L3.37134 4.25498Z" fill="#4C4F5A"/>
<path d="M10 7.5C10.4945 7.5 10.9778 7.64662 11.3889 7.92133C11.8 8.19603 12.1205 8.58648 12.3097 9.04329C12.4989 9.50011 12.5484 10.0028 12.452 10.4877C12.3555 10.9727 12.1174 11.4181 11.7678 11.7678C11.4181 12.1174 10.9727 12.3555 10.4877 12.452C10.0028 12.5484 9.50011 12.4989 9.04329 12.3097C8.58648 12.1205 8.19603 11.8 7.92133 11.3889C7.64662 10.9778 7.5 10.4945 7.5 10C7.50083 9.33721 7.76449 8.70181 8.23315 8.23315C8.70181 7.76448 9.33721 7.50083 10 7.5ZM10 6.25C9.25832 6.25 8.5333 6.46993 7.91661 6.88199C7.29993 7.29404 6.81928 7.87971 6.53545 8.56494C6.25162 9.25016 6.17736 10.0042 6.32206 10.7316C6.46675 11.459 6.8239 12.1272 7.34835 12.6517C7.8728 13.1761 8.54098 13.5333 9.26841 13.6779C9.99584 13.8226 10.7498 13.7484 11.4351 13.4645C12.1203 13.1807 12.706 12.7001 13.118 12.0834C13.5301 11.4667 13.75 10.7417 13.75 10C13.75 9.00544 13.3549 8.05161 12.6517 7.34835C11.9484 6.64509 10.9946 6.25 10 6.25Z" fill="#4C4F5A"/>
</svg>
