<svg width="20" height="21" viewBox="0 0 20 21" fill="none" xmlns="http://www.w3.org/2000/svg">
<path d="M13.8337 11.6698C13.667 11.5864 12.5837 11.0864 12.417 11.0031C12.2503 10.9198 12.0837 10.9198 11.917 11.0864C11.7503 11.2531 11.417 11.7531 11.2503 11.9198C11.167 12.0864 11.0003 12.0864 10.8337 12.0031C10.2503 11.7531 9.66699 11.4198 9.16699 11.0031C8.75033 10.5864 8.33366 10.0864 8.00033 9.58643C7.91699 9.41976 8.00033 9.25309 8.08366 9.16976C8.16699 9.08643 8.25033 8.91976 8.41699 8.83643C8.50033 8.75309 8.58366 8.58643 8.58366 8.50309C8.66699 8.41976 8.66699 8.25309 8.58366 8.16976C8.50033 8.08643 8.08366 7.08643 7.91699 6.66976C7.83366 6.08643 7.66699 6.08643 7.50033 6.08643C7.41699 6.08643 7.25033 6.08643 7.08366 6.08643C6.91699 6.08643 6.66699 6.25309 6.58366 6.33643C6.08366 6.83643 5.83366 7.41976 5.83366 8.08643C5.91699 8.83643 6.16699 9.58643 6.66699 10.2531C7.58366 11.5864 8.75033 12.6698 10.167 13.3364C10.5837 13.5031 10.917 13.6698 11.3337 13.7531C11.7503 13.9198 12.167 13.9198 12.667 13.8364C13.2503 13.7531 13.7503 13.3364 14.0837 12.8364C14.2503 12.5031 14.2503 12.1698 14.167 11.8364C14.167 11.8364 14.0003 11.7531 13.8337 11.6698ZM15.917 4.08643C12.667 0.836426 7.41699 0.836426 4.16699 4.08643C1.50033 6.75309 1.00033 10.8364 2.83366 14.0864L1.66699 18.3364L6.08366 17.1698C7.33366 17.8364 8.66699 18.1698 10.0003 18.1698C14.5837 18.1698 18.2503 14.5031 18.2503 9.91976C18.3337 7.75309 17.417 5.66976 15.917 4.08643ZM13.667 15.7531C12.5837 16.4198 11.3337 16.8364 10.0003 16.8364C8.75033 16.8364 7.58366 16.5031 6.50033 15.9198L6.25033 15.7531L3.66699 16.4198L4.33366 13.9198L4.16699 13.6698C2.16699 10.3364 3.16699 6.16976 6.41699 4.08643C9.66699 2.00309 13.8337 3.08643 15.8337 6.25309C17.8337 9.50309 16.917 13.7531 13.667 15.7531Z" fill="#D6D9E4"/>
</svg>
