<svg width="20" height="20" viewBox="0 0 20 20" fill="none" xmlns="http://www.w3.org/2000/svg">
<path d="M13.8337 11.6668C13.667 11.5835 12.5837 11.0835 12.417 11.0002C12.2503 10.9168 12.0837 10.9168 11.917 11.0835C11.7503 11.2502 11.417 11.7502 11.2503 11.9168C11.167 12.0835 11.0003 12.0835 10.8337 12.0002C10.2503 11.7502 9.66699 11.4168 9.16699 11.0002C8.75033 10.5835 8.33366 10.0835 8.00033 9.5835C7.91699 9.41683 8.00033 9.25016 8.08366 9.16683C8.16699 9.0835 8.25033 8.91683 8.41699 8.8335C8.50033 8.75016 8.58366 8.5835 8.58366 8.50016C8.66699 8.41683 8.66699 8.25016 8.58366 8.16683C8.50033 8.0835 8.08366 7.0835 7.91699 6.66683C7.83366 6.0835 7.66699 6.0835 7.50033 6.0835C7.41699 6.0835 7.25033 6.0835 7.08366 6.0835C6.91699 6.0835 6.66699 6.25016 6.58366 6.3335C6.08366 6.8335 5.83366 7.41683 5.83366 8.0835C5.91699 8.8335 6.16699 9.5835 6.66699 10.2502C7.58366 11.5835 8.75033 12.6668 10.167 13.3335C10.5837 13.5002 10.917 13.6668 11.3337 13.7502C11.7503 13.9168 12.167 13.9168 12.667 13.8335C13.2503 13.7502 13.7503 13.3335 14.0837 12.8335C14.2503 12.5002 14.2503 12.1668 14.167 11.8335C14.167 11.8335 14.0003 11.7502 13.8337 11.6668ZM15.917 4.0835C12.667 0.833496 7.41699 0.833496 4.16699 4.0835C1.50033 6.75016 1.00033 10.8335 2.83366 14.0835L1.66699 18.3335L6.08366 17.1668C7.33366 17.8335 8.66699 18.1668 10.0003 18.1668C14.5837 18.1668 18.2503 14.5002 18.2503 9.91683C18.3337 7.75016 17.417 5.66683 15.917 4.0835ZM13.667 15.7502C12.5837 16.4168 11.3337 16.8335 10.0003 16.8335C8.75033 16.8335 7.58366 16.5002 6.50033 15.9168L6.25033 15.7502L3.66699 16.4168L4.33366 13.9168L4.16699 13.6668C2.16699 10.3335 3.16699 6.16683 6.41699 4.0835C9.66699 2.00016 13.8337 3.0835 15.8337 6.25016C17.8337 9.50016 16.917 13.7502 13.667 15.7502Z" fill="#31343E"/>
</svg>
